<svg width="48" height="48" viewBox="0 0 48 48" fill="none" xmlns="http://www.w3.org/2000/svg">
<path d="M29.1601 5.15991H13.3201C12.3016 5.15991 11.3249 5.56448 10.6048 6.28462C9.88462 7.00476 9.48005 7.98148 9.48005 8.99991V27.4799L4.68005 30.5999H29.1601C30.1785 30.5999 31.1552 30.1953 31.8753 29.4752C32.5955 28.7551 33.0001 27.7783 33.0001 26.7599V8.99991C33.0001 7.98148 32.5955 7.00476 31.8753 6.28462C31.1552 5.56448 30.1785 5.15991 29.1601 5.15991Z" fill="white"/>
<path d="M38.88 13.3381H30.48C28.1604 13.3381 26.28 15.2185 26.28 17.5381V36.0181C26.28 38.3377 28.1604 40.2181 30.48 40.2181H38.88C41.1996 40.2181 43.08 38.3377 43.08 36.0181V17.5381C43.08 15.2185 41.1996 13.3381 38.88 13.3381Z" fill="#FFDBA3"/>
<path d="M31.44 34.9199H20.16C18.5032 34.9199 17.16 36.2631 17.16 37.9199V40.5599C17.16 42.2168 18.5032 43.5599 20.16 43.5599H31.44C33.0969 43.5599 34.44 42.2168 34.44 40.5599V37.9199C34.44 36.2631 33.0969 34.9199 31.44 34.9199Z" fill="#FFC877"/>
</svg>
