<svg width="56" height="56" viewBox="0 0 56 56" fill="none" xmlns="http://www.w3.org/2000/svg">
<path d="M25.2882 21.7C25.4429 21.0983 25.7933 20.5652 26.2842 20.1845C26.7751 19.8038 27.3787 19.5972 28 19.5972C28.6212 19.5972 29.2248 19.8038 29.7157 20.1845C30.2067 20.5652 30.5571 21.0983 30.7118 21.7H43.4C43.215 17.7401 41.5117 14.0036 38.6439 11.2667C35.7761 8.52974 31.9642 7.00269 28 7.00269C24.0358 7.00269 20.2239 8.52974 17.3561 11.2667C14.4883 14.0036 12.785 17.7401 12.6 21.7H25.2882Z" fill="#FFC777"/>
<path d="M25.2924 23.1001H12.6V33.6001C12.5959 37.566 14.1219 41.3806 16.8603 44.2493C19.5987 47.1181 23.3382 48.8198 27.3 49.0001V25.1049C26.8171 24.9798 26.3764 24.7281 26.0235 24.3756C25.6705 24.0231 25.4181 23.5828 25.2924 23.1001Z" fill="#FFDBA3"/>
<path d="M30.7047 23.1001C30.5794 23.5845 30.3266 24.0265 29.9725 24.3801C29.6184 24.7336 29.1761 24.9858 28.6915 25.1105V37.8001C32.534 37.6256 36.1725 36.0208 38.8923 33.3009C41.6122 30.581 43.217 26.9426 43.3915 23.1001H30.7047Z" fill="#2E4654"/>
</svg>
