<svg width="72" height="72" viewBox="0 0 72 72" fill="none" xmlns="http://www.w3.org/2000/svg">
<path d="M32.5136 27.8994C32.7125 27.1258 33.163 26.4404 33.7942 25.9509C34.4254 25.4615 35.2015 25.1959 36.0002 25.1959C36.7989 25.1959 37.575 25.4615 38.2062 25.9509C38.8374 26.4404 39.2879 27.1258 39.4868 27.8994H55.8002C55.5623 22.8081 53.3724 18.0041 49.6852 14.4852C45.998 10.9663 41.097 9.00293 36.0002 9.00293C30.9033 9.00293 26.0024 10.9663 22.3152 14.4852C18.628 18.0041 16.4381 22.8081 16.2002 27.8994H32.5136Z" fill="#FFC777"/>
<path d="M32.5185 29.7002H16.1997V43.2002C16.1944 48.2992 18.1565 53.2037 21.6773 56.8921C25.198 60.5805 30.006 62.7684 35.0997 63.0002V32.2778C34.4789 32.117 33.9123 31.7933 33.4585 31.3401C33.0047 30.887 32.6802 30.3208 32.5185 29.7002Z" fill="#FFDBA3"/>
<path d="M39.4776 29.7002C39.3164 30.323 38.9913 30.8913 38.5361 31.3459C38.0809 31.8004 37.5122 32.1247 36.8892 32.285V48.6002C41.8295 48.3758 46.5075 46.3125 50.0045 42.8155C53.5015 39.3186 55.5647 34.6406 55.7892 29.7002H39.4776Z" fill="#2E4654"/>
</svg>
