<svg width="36" height="36" viewBox="0 0 36 36" fill="none" xmlns="http://www.w3.org/2000/svg">
<path d="M21.87 3.87012H9.99001C9.22618 3.87012 8.49365 4.17354 7.95354 4.71365C7.41344 5.25375 7.11001 5.98629 7.11001 6.75012V20.6101L3.51001 22.9501H21.87C22.6338 22.9501 23.3664 22.6467 23.9065 22.1066C24.4466 21.5665 24.75 20.8339 24.75 20.0701V6.75012C24.75 5.98629 24.4466 5.25375 23.9065 4.71365C23.3664 4.17354 22.6338 3.87012 21.87 3.87012Z" fill="white"/>
<path d="M29.16 10.0037H22.86C21.1203 10.0037 19.71 11.414 19.71 13.1537V27.0137C19.71 28.7534 21.1203 30.1637 22.86 30.1637H29.16C30.8997 30.1637 32.31 28.7534 32.31 27.0137V13.1537C32.31 11.414 30.8997 10.0037 29.16 10.0037Z" fill="#FFDBA3"/>
<path d="M23.58 26.1899H15.12C13.8774 26.1899 12.87 27.1973 12.87 28.4399V30.4199C12.87 31.6626 13.8774 32.6699 15.12 32.6699H23.58C24.8226 32.6699 25.83 31.6626 25.83 30.4199V28.4399C25.83 27.1973 24.8226 26.1899 23.58 26.1899Z" fill="#FFC777"/>
</svg>
