<svg width="44" height="44" viewBox="0 0 44 44" fill="none" xmlns="http://www.w3.org/2000/svg">
<path d="M26.73 4.72998H12.21C11.2765 4.72998 10.3812 5.10084 9.72102 5.76096C9.06089 6.42109 8.69004 7.31642 8.69004 8.24998V25.19L4.29004 28.05H26.73C27.6636 28.05 28.5589 27.6791 29.2191 27.019C29.8792 26.3589 30.25 25.4635 30.25 24.53V8.24998C30.25 7.31642 29.8792 6.42109 29.2191 5.76096C28.5589 5.10084 27.6636 4.72998 26.73 4.72998Z" fill="white"/>
<path d="M35.64 12.2266H27.94C25.8137 12.2266 24.09 13.9503 24.09 16.0766V33.0166C24.09 35.1429 25.8137 36.8666 27.94 36.8666H35.64C37.7663 36.8666 39.49 35.1429 39.49 33.0166V16.0766C39.49 13.9503 37.7663 12.2266 35.64 12.2266Z" fill="#FFDBA3"/>
<path d="M28.82 32.01H18.48C16.9612 32.01 15.73 33.2412 15.73 34.76V37.18C15.73 38.6988 16.9612 39.93 18.48 39.93H28.82C30.3388 39.93 31.57 38.6988 31.57 37.18V34.76C31.57 33.2412 30.3388 32.01 28.82 32.01Z" fill="#FFC877"/>
</svg>
