<svg width="32" height="32" viewBox="0 0 32 32" fill="none" xmlns="http://www.w3.org/2000/svg">
<path fill-rule="evenodd" clip-rule="evenodd" d="M16 32C24.8366 32 32 24.8366 32 16C32 7.16344 24.8366 0 16 0C7.16344 0 0 7.16344 0 16C0 24.8366 7.16344 32 16 32ZM13.2633 24.4472C13.2655 24.6987 13.2672 24.9098 13.2681 25.0573C14.166 25.3164 15.1149 25.4552 16.0962 25.4552C16.9682 25.4552 17.8147 25.3456 18.6225 25.1393C18.6229 25.0136 18.6241 24.8262 18.6257 24.5887C18.6296 24.0176 18.6353 23.1568 18.6353 22.1667C18.6353 21.1344 18.2898 20.4606 17.9022 20.1173C20.3069 19.843 22.8337 18.9067 22.8337 14.6544C22.8337 13.445 22.4147 12.4581 21.7215 11.6828C21.8338 11.4031 22.2042 10.277 21.6157 8.75228C21.6157 8.75228 20.7108 8.45562 18.6494 9.88746C17.7866 9.64234 16.8623 9.51901 15.9444 9.51469C15.0266 9.51901 14.1034 9.64234 13.2417 9.88746C11.1781 8.45562 10.2711 8.75228 10.2711 8.75228C9.68474 10.277 10.0551 11.4031 10.1663 11.6828C9.47634 12.4581 9.05413 13.445 9.05413 14.6544C9.05413 18.8959 11.5755 19.8465 13.9738 20.1262C13.665 20.4027 13.3853 20.8903 13.2881 21.6062C12.6726 21.8891 11.109 22.3788 10.1458 20.6867C10.1458 20.6867 9.5746 19.6229 8.49046 19.5452C8.49046 19.5452 7.43764 19.5312 8.41703 20.218C8.41703 20.218 9.12431 20.5581 9.61563 21.8377C9.61563 21.8377 10.2495 23.8137 13.2535 23.1442C13.2563 23.6171 13.2602 24.076 13.2633 24.4469L13.2633 24.4472Z" fill="#2E4654"/>
</svg>
