<svg width="32" height="32" viewBox="0 0 32 32" fill="none" xmlns="http://www.w3.org/2000/svg">
<path fill-rule="evenodd" clip-rule="evenodd" d="M16 32C24.8366 32 32 24.8366 32 16C32 7.16344 24.8366 0 16 0C7.16344 0 0 7.16344 0 16C0 24.8366 7.16344 32 16 32ZM14.6812 13.4845V18.1489C14.9912 17.991 15.2973 17.8356 15.5985 17.6826C16.9166 17.0134 18.1395 16.3926 19.1642 15.8279C18.7355 15.5999 18.3253 15.3766 17.9203 15.1561C16.8833 14.5914 15.8794 14.0448 14.6812 13.4845ZM22.6682 10.3985C23.1897 10.4955 23.6796 10.7884 23.967 11.1647C24.9651 12.7263 25.05 19.7685 23.8037 21.0068C23.4896 21.3119 23.0914 21.5198 22.6415 21.5977C17.7587 21.9633 11.2563 21.8182 9.99419 21.5588C9.54348 21.4684 9.15109 21.267 8.86451 20.9744C8.64207 20.753 8.46544 20.4159 8.32881 19.9484C8.0039 18.8683 7.58151 12.2007 8.92948 10.9573C9.24939 10.6647 9.6218 10.4764 10.04 10.3985C11.5721 10.1084 21.1353 10.1092 22.6682 10.3985Z" fill="#2E4654"/>
</svg>
